name analog
datacolumns 19
datarows 37
range 0.154 0.17200000000000001
endheader
time	ground_force_vx	ground_force_vy	ground_force_vz	ground_force_px	ground_force_py	ground_force_pz	l_ground_force_vx	l_ground_force_vy	l_ground_force_vz	l_ground_force_px	l_ground_force_py	l_ground_force_pz	ground_torque_x	ground_torque_y	ground_torque_z	l_ground_torque_x	l_ground_torque_y	l_ground_torque_z
0.154	-0.0	-0.0	-0.0	20.489273071289062	19.81606674194336	-418.5252685546875	-19.013071060180664	-30.11587905883789	-447.028076171875	-0.0	-0.0	-0.0	-0.0	-0.0	-0.0	93701.2265625	631.6561889648438	-21230.349609375
0.1545	-0.0	-0.0	-0.0	20.55074119567871	19.727012634277344	-418.1650390625	-19.69379425048828	-29.67767906188965	-443.416259765625	-0.0	-0.0	-0.0	-0.0	-0.0	-0.0	93279.7421875	942.2783813476562	-21260.462890625
0.155	-0.0	-0.0	-0.0	20.96584701538086	19.9652099609375	-419.69915771484375	-19.39714241027832	-29.55879783630371	-440.9841003417969	-0.0	-0.0	-0.0	-0.0	-0.0	-0.0	92564.8203125	882.7954711914062	-21211.158203125
0.1555	-0.0	-0.0	-0.0	21.08550453186035	20.65021133422852	-419.4666748046875	-19.45549774169922	-29.471729278564453	-440.0559692382813	-0.0	-0.0	-0.0	-0.0	-0.0	-0.0	92142.78125	1189.1922607421875	-21131.5078125
0.156	-0.0	-0.0	-0.0	20.489023208618164	21.185718536376957	-419.224609375	-19.426586151123047	-29.23554992675781	-438.4152526855469	-0.0	-0.0	-0.0	-0.0	-0.0	-0.0	92084.4921875	1171.071044921875	-21132.271484375
0.1565	-0.0	-0.0	-0.0	19.29892349243164	21.451000213623047	-421.6968383789063	-19.24933815002441	-29.55952262878418	-439.0023193359375	-0.0	-0.0	-0.0	-0.0	-0.0	-0.0	92169.0625	772.48046875	-21082.96875
0.157	-0.0	-0.0	-0.0	18.912628173828125	21.57025146484375	-421.6941223144531	-19.426916122436523	-29.500185012817383	-439.2298278808594	-0.0	-0.0	-0.0	-0.0	-0.0	-0.0	92344.03125	1034.909912109375	-21102.638671875
0.1575	-0.0	-0.0	-0.0	18.020523071289062	21.895532608032227	-424.6393432617188	-19.102758407592773	-29.38186454772949	-440.5158996582031	-0.0	-0.0	-0.0	-0.0	-0.0	-0.0	92447.09375	1052.7139892578125	-21003.16796875
0.158	-0.0	-0.0	-0.0	17.514495849609375	22.312185287475582	-426.2867126464844	-19.48694610595703	-29.35209846496582	-440.74853515625	-0.0	-0.0	-0.0	-0.0	-0.0	-0.0	92775.796875	1109.02587890625	-21092.767578125
0.1585	-0.0	-0.0	-0.0	16.503496170043945	22.995046615600582	-429.34869384765625	-19.339155197143555	-28.969310760498047	-440.7454528808594	-0.0	-0.0	-0.0	-0.0	-0.0	-0.0	92931.0390625	1020.430908203125	-21013.38671875
0.159	-0.0	-0.0	-0.0	16.05791664123535	23.678993225097656	-431.3501586914063	-19.752944946289062	-28.969453811645508	-441.7931518554688	-0.0	-0.0	-0.0	-0.0	-0.0	-0.0	92953.75	1114.180419921875	-21221.302734375
0.1595	-0.0	-0.0	-0.0	15.374448776245115	23.767906188964844	-434.05755615234375	-19.930419921875	-28.380638122558597	-442.9569091796875	-0.0	-0.0	-0.0	-0.0	-0.0	-0.0	93318.1875	1162.752685546875	-21339.962890625
0.16	-0.0	-0.0	-0.0	15.343453407287598	24.15358543395996	-435.7088012695313	-20.343807220458984	-27.87978744506836	-445.0490112304688	-0.0	-0.0	-0.0	-0.0	-0.0	-0.0	93665.9296875	1121.027099609375	-21370.0546875
0.1605	-0.0	-0.0	-0.0	14.57121753692627	24.273347854614254	-438.9986877441406	-20.728605270385746	-27.32143211364746	-445.2852783203125	-0.0	-0.0	-0.0	-0.0	-0.0	-0.0	94075.5234375	945.3372192382812	-21547.689453125
0.161	-0.0	-0.0	-0.0	14.06529140472412	24.421730041503903	-437.23675537109375	-20.87681770324707	-27.20244598388672	-445.280517578125	-0.0	-0.0	-0.0	-0.0	-0.0	-0.0	93981.7578125	839.7421264648438	-21567.595703125
0.1615	-0.0	-0.0	-0.0	13.530863761901855	25.07384490966797	-438.292724609375	-20.315614700317383	-26.702869415283203	-445.9807739257813	-0.0	-0.0	-0.0	-0.0	-0.0	-0.0	94109.1875	851.4222412109375	-21488.296875
0.162	-0.0	-0.0	-0.0	13.17204475402832	25.490264892578125	-439.3599243164063	-19.98982048034668	-26.91028213500977	-446.21197509765625	-0.0	-0.0	-0.0	-0.0	-0.0	-0.0	94075.828125	889.7340087890625	-21270.5
0.1625	-0.0	-0.0	-0.0	12.102474212646484	25.729812622070312	-439.83837890625	-19.8712158203125	-26.49888229370117	-445.7486877441406	-0.0	-0.0	-0.0	-0.0	-0.0	-0.0	94425.765625	798.1126708984375	-21161.30078125
0.163	-0.0	-0.0	-0.0	11.7743558883667	25.873714447021484	-440.8825378417969	-19.338951110839844	-26.23290252685547	-445.0501403808594	-0.0	-0.0	-0.0	-0.0	-0.0	-0.0	94431.8125	886.3984375	-21012.515625
0.1635	-0.0	-0.0	-0.0	12.16444206237793	26.202781677246094	-441.3551330566406	-19.160036087036133	-26.17464256286621	-444.114990234375	-0.0	-0.0	-0.0	-0.0	-0.0	-0.0	93901.890625	1012.4533081054688	-20942.98046875
0.164	-0.0	-0.0	-0.0	11.631264686584473	26.822906494140625	-443.3609008789063	-19.308807373046875	-25.78993225097656	-441.92083740234375	-0.0	-0.0	-0.0	-0.0	-0.0	-0.0	93659.9609375	811.7382202148438	-20864.0234375
0.1645	-0.0	-0.0	-0.0	12.13262939453125	26.88894271850586	-444.6384582519531	-18.8935546875	-25.701610565185547	-440.978515625	-0.0	-0.0	-0.0	-0.0	-0.0	-0.0	93456.4765625	793.8557739257812	-20883.26171875
0.165	-0.0	-0.0	-0.0	11.98464584350586	27.452163696289062	-446.1701354980469	-19.070785522460938	-25.61328887939453	-439.70892333984375	-0.0	-0.0	-0.0	-0.0	-0.0	-0.0	93360.8359375	705.8093872070312	-20737.04296875
0.1655	-0.0	-0.0	-0.0	12.400260925292969	27.54129409790039	-447.8321533203125	-18.57087135314941	-25.05540657043457	-439.68359375	-0.0	-0.0	-0.0	-0.0	-0.0	-0.0	93394.3203125	653.9688110351562	-20694.66015625
0.166	-0.0	-0.0	-0.0	12.57868194580078	27.449731826782227	-448.7803955078125	-18.12735939025879	-24.553428649902344	-440.2615966796875	-0.0	-0.0	-0.0	-0.0	-0.0	-0.0	93326.984375	563.7652587890625	-20330.427734375
0.1665	-0.0	-0.0	-0.0	13.476106643676758	27.513355255126957	-450.4256591796875	-17.240325927734375	-23.84685516357422	-440.3999938964844	-0.0	-0.0	-0.0	-0.0	-0.0	-0.0	93261.7265625	343.6436462402344	-20279.724609375
0.167	-0.0	-0.0	-0.0	14.304346084594728	27.0705680847168	-450.1940307617188	-16.475242614746094	-23.20375061035156	-439.4727478027344	-0.0	-0.0	-0.0	-0.0	-0.0	-0.0	93318.1953125	265.896728515625	-20080.697265625
0.1675	-0.0	-0.0	-0.0	14.928878784179688	27.064945220947266	-449.3665161132813	-16.001361846923828	-22.936115264892575	-438.1625671386719	-0.0	-0.0	-0.0	-0.0	-0.0	-0.0	93098.09375	102.85647583007812	-20020.978515625
0.168	-0.0	-0.0	-0.0	15.196585655212402	27.12322998046875	-451.70452880859375	-15.551881790161133	-22.43370819091797	-437.6319580078125	-0.0	-0.0	-0.0	-0.0	-0.0	-0.0	93226.78125	107.79984283447266	-19664.58984375
0.1685	-0.0	-0.0	-0.0	15.63936996459961	27.12645530700684	-452.08343505859375	-14.937296867370604	-22.750036239624023	-439.2200012207031	-0.0	-0.0	-0.0	-0.0	-0.0	-0.0	93463.8203125	236.44581604003903	-19723.572265625
0.169	-0.0	-0.0	-0.0	15.71506118774414	27.215648651123047	-451.1331481933594	-14.52471160888672	-22.990802764892575	-437.8630981445313	-0.0	-0.0	-0.0	-0.0	-0.0	-0.0	93585.2109375	124.7207489013672	-19693.697265625
0.1695	-0.0	-0.0	-0.0	16.363920211791992	27.04487419128418	-450.6575927734375	-14.251654624938965	-23.316925048828125	-438.4276123046875	-0.0	-0.0	-0.0	-0.0	-0.0	-0.0	93146.7265625	-92.58977508544922	-19567.09375
0.17	-0.0	-0.0	-0.0	16.18195343017578	27.832008361816406	-452.85394287109375	-14.10501480102539	-23.347612380981445	-436.7590942382813	-0.0	-0.0	-0.0	-0.0	-0.0	-0.0	93035.40625	64.55016326904297	-19485.87890625
0.1705	-0.0	-0.0	-0.0	16.30661964416504	27.964000701904297	-452.3004150390625	-14.158843040466309	-23.8736515045166	-436.5768432617188	-0.0	-0.0	-0.0	-0.0	-0.0	-0.0	92694.2109375	119.50291442871094	-19407.416015625
0.171	-0.0	-0.0	-0.0	16.343961715698242	27.69266700744629	-452.6869201660156	-13.950233459472656	-23.793493270874023	-435.4975280761719	-0.0	-0.0	-0.0	-0.0	-0.0	-0.0	92223.9765625	-119.6499481201172	-19346.56640625
0.1715	-0.0	-0.0	-0.0	16.3211612701416	28.254337310791016	-453.2360534667969	-13.391046524047852	-23.586153030395508	-433.2971801757813	-0.0	-0.0	-0.0	-0.0	-0.0	-0.0	92214.1640625	242.1722412109375	-19274.978515625
0.17200000000000001	-0.0	-0.0	-0.0	16.3880558013916	27.95112419128418	-454.400634765625	-12.654569625854492	-23.515531539916992	-432.96575927734375	-0.0	-0.0	-0.0	-0.0	-0.0	-0.0	91791.0234375	12.326848030090332	-19160.17578125
